<svg width="394" height="75" viewBox="0 0 394 75" fill="none" xmlns="http://www.w3.org/2000/svg">
<g clip-path="url(#clip0_1_2)">
<path d="M27.75 47.0938C27.75 46.2812 27.625 45.5521 27.375 44.9062C27.1458 44.2396 26.7083 43.6354 26.0625 43.0938C25.4167 42.5312 24.5104 41.9792 23.3438 41.4375C22.1771 40.8958 20.6667 40.3333 18.8125 39.75C16.75 39.0833 14.7917 38.3333 12.9375 37.5C11.1042 36.6667 9.47917 35.6979 8.0625 34.5938C6.66667 33.4688 5.5625 32.1667 4.75 30.6875C3.95833 29.2083 3.5625 27.4896 3.5625 25.5312C3.5625 23.6354 3.97917 21.9167 4.8125 20.375C5.64583 18.8125 6.8125 17.4792 8.3125 16.375C9.8125 15.25 11.5833 14.3854 13.625 13.7812C15.6875 13.1771 17.9479 12.875 20.4062 12.875C23.7604 12.875 26.6875 13.4792 29.1875 14.6875C31.6875 15.8958 33.625 17.5521 35 19.6562C36.3958 21.7604 37.0938 24.1667 37.0938 26.875H27.7812C27.7812 25.5417 27.5 24.375 26.9375 23.375C26.3958 22.3542 25.5625 21.5521 24.4375 20.9688C23.3333 20.3854 21.9375 20.0938 20.25 20.0938C18.625 20.0938 17.2708 20.3438 16.1875 20.8438C15.1042 21.3229 14.2917 21.9792 13.75 22.8125C13.2083 23.625 12.9375 24.5417 12.9375 25.5625C12.9375 26.3333 13.125 27.0312 13.5 27.6562C13.8958 28.2812 14.4792 28.8646 15.25 29.4062C16.0208 29.9479 16.9688 30.4583 18.0938 30.9375C19.2188 31.4167 20.5208 31.8854 22 32.3438C24.4792 33.0938 26.6562 33.9375 28.5312 34.875C30.4271 35.8125 32.0104 36.8646 33.2812 38.0312C34.5521 39.1979 35.5104 40.5208 36.1562 42C36.8021 43.4792 37.125 45.1562 37.125 47.0312C37.125 49.0104 36.7396 50.7812 35.9688 52.3438C35.1979 53.9062 34.0833 55.2292 32.625 56.3125C31.1667 57.3958 29.4271 58.2188 27.4062 58.7812C25.3854 59.3438 23.125 59.625 20.625 59.625C18.375 59.625 16.1562 59.3333 13.9688 58.75C11.7812 58.1458 9.79167 57.2396 8 56.0312C6.22917 54.8229 4.8125 53.2812 3.75 51.4062C2.6875 49.5312 2.15625 47.3125 2.15625 44.75H11.5625C11.5625 46.1667 11.7812 47.3646 12.2188 48.3438C12.6562 49.3229 13.2708 50.1146 14.0625 50.7188C14.875 51.3229 15.8333 51.7604 16.9375 52.0312C18.0625 52.3021 19.2917 52.4375 20.625 52.4375C22.25 52.4375 23.5833 52.2083 24.625 51.75C25.6875 51.2917 26.4688 50.6562 26.9688 49.8438C27.4896 49.0312 27.75 48.1146 27.75 47.0938ZM58.5 59.625C55.875 59.625 53.5208 59.2083 51.4375 58.375C49.3542 57.5208 47.5833 56.3438 46.125 54.8438C44.6875 53.3438 43.5833 51.6042 42.8125 49.625C42.0417 47.625 41.6562 45.5 41.6562 43.25V42C41.6562 39.4375 42.0208 37.0938 42.75 34.9688C43.4792 32.8438 44.5208 31 45.875 29.4375C47.25 27.875 48.9167 26.6771 50.875 25.8438C52.8333 24.9896 55.0417 24.5625 57.5 24.5625C59.8958 24.5625 62.0208 24.9583 63.875 25.75C65.7292 26.5417 67.2812 27.6667 68.5312 29.125C69.8021 30.5833 70.7604 32.3333 71.4062 34.375C72.0521 36.3958 72.375 38.6458 72.375 41.125V44.875H45.5V38.875H63.5312V38.1875C63.5312 36.9375 63.3021 35.8229 62.8438 34.8438C62.4062 33.8438 61.7396 33.0521 60.8438 32.4688C59.9479 31.8854 58.8021 31.5938 57.4062 31.5938C56.2188 31.5938 55.1979 31.8542 54.3438 32.375C53.4896 32.8958 52.7917 33.625 52.25 34.5625C51.7292 35.5 51.3333 36.6042 51.0625 37.875C50.8125 39.125 50.6875 40.5 50.6875 42V43.25C50.6875 44.6042 50.875 45.8542 51.25 47C51.6458 48.1458 52.1979 49.1354 52.9062 49.9688C53.6354 50.8021 54.5104 51.4479 55.5312 51.9062C56.5729 52.3646 57.75 52.5938 59.0625 52.5938C60.6875 52.5938 62.1979 52.2812 63.5938 51.6562C65.0104 51.0104 66.2292 50.0417 67.25 48.75L71.625 53.5C70.9167 54.5208 69.9479 55.5 68.7188 56.4375C67.5104 57.375 66.0521 58.1458 64.3438 58.75C62.6354 59.3333 60.6875 59.625 58.5 59.625ZM95.75 51.375V36.3125C95.75 35.2292 95.5729 34.3021 95.2188 33.5312C94.8646 32.7396 94.3125 32.125 93.5625 31.6875C92.8333 31.25 91.8854 31.0312 90.7188 31.0312C89.7188 31.0312 88.8542 31.2083 88.125 31.5625C87.3958 31.8958 86.8333 32.3854 86.4375 33.0312C86.0417 33.6562 85.8438 34.3958 85.8438 35.25H76.8438C76.8438 33.8125 77.1771 32.4479 77.8438 31.1562C78.5104 29.8646 79.4792 28.7292 80.75 27.75C82.0208 26.75 83.5312 25.9688 85.2812 25.4062C87.0521 24.8438 89.0312 24.5625 91.2188 24.5625C93.8438 24.5625 96.1771 25 98.2188 25.875C100.26 26.75 101.865 28.0625 103.031 29.8125C104.219 31.5625 104.812 33.75 104.812 36.375V50.8438C104.812 52.6979 104.927 54.2188 105.156 55.4062C105.385 56.5729 105.719 57.5938 106.156 58.4688V59H97.0625C96.625 58.0833 96.2917 56.9375 96.0625 55.5625C95.8542 54.1667 95.75 52.7708 95.75 51.375ZM96.9375 38.4062L97 43.5H91.9688C90.7812 43.5 89.75 43.6354 88.875 43.9062C88 44.1771 87.2812 44.5625 86.7188 45.0625C86.1562 45.5417 85.7396 46.1042 85.4688 46.75C85.2188 47.3958 85.0938 48.1042 85.0938 48.875C85.0938 49.6458 85.2708 50.3438 85.625 50.9688C85.9792 51.5729 86.4896 52.0521 87.1562 52.4062C87.8229 52.7396 88.6042 52.9062 89.5 52.9062C90.8542 52.9062 92.0312 52.6354 93.0312 52.0938C94.0312 51.5521 94.8021 50.8854 95.3438 50.0938C95.9062 49.3021 96.1979 48.5521 96.2188 47.8438L98.5938 51.6562C98.2604 52.5104 97.8021 53.3958 97.2188 54.3125C96.6562 55.2292 95.9375 56.0938 95.0625 56.9062C94.1875 57.6979 93.1354 58.3542 91.9062 58.875C90.6771 59.375 89.2188 59.625 87.5312 59.625C85.3854 59.625 83.4375 59.1979 81.6875 58.3438C79.9583 57.4688 78.5833 56.2708 77.5625 54.75C76.5625 53.2083 76.0625 51.4583 76.0625 49.5C76.0625 47.7292 76.3958 46.1562 77.0625 44.7812C77.7292 43.4062 78.7083 42.25 80 41.3125C81.3125 40.3542 82.9479 39.6354 84.9062 39.1562C86.8646 38.6562 89.1354 38.4062 91.7188 38.4062H96.9375ZM120.75 32.5625V59H111.75V25.1875H120.219L120.75 32.5625ZM130.938 24.9688L130.781 33.3125C130.344 33.25 129.812 33.1979 129.188 33.1562C128.583 33.0938 128.031 33.0625 127.531 33.0625C126.26 33.0625 125.156 33.2292 124.219 33.5625C123.302 33.875 122.531 34.3438 121.906 34.9688C121.302 35.5938 120.844 36.3542 120.531 37.25C120.24 38.1458 120.073 39.1667 120.031 40.3125L118.219 39.75C118.219 37.5625 118.438 35.5521 118.875 33.7188C119.312 31.8646 119.948 30.25 120.781 28.875C121.635 27.5 122.677 26.4375 123.906 25.6875C125.135 24.9375 126.542 24.5625 128.125 24.5625C128.625 24.5625 129.135 24.6042 129.656 24.6875C130.177 24.75 130.604 24.8438 130.938 24.9688ZM148.531 52.5938C149.635 52.5938 150.615 52.3854 151.469 51.9688C152.323 51.5312 152.99 50.9271 153.469 50.1562C153.969 49.3646 154.229 48.4375 154.25 47.375H162.719C162.698 49.75 162.062 51.8646 160.812 53.7188C159.562 55.5521 157.885 57 155.781 58.0625C153.677 59.1042 151.323 59.625 148.719 59.625C146.094 59.625 143.802 59.1875 141.844 58.3125C139.906 57.4375 138.292 56.2292 137 54.6875C135.708 53.125 134.74 51.3125 134.094 49.25C133.448 47.1667 133.125 44.9375 133.125 42.5625V41.6562C133.125 39.2604 133.448 37.0312 134.094 34.9688C134.74 32.8854 135.708 31.0729 137 29.5312C138.292 27.9688 139.906 26.75 141.844 25.875C143.781 25 146.052 24.5625 148.656 24.5625C151.427 24.5625 153.854 25.0938 155.938 26.1562C158.042 27.2188 159.688 28.7396 160.875 30.7188C162.083 32.6771 162.698 35 162.719 37.6875H154.25C154.229 36.5625 153.99 35.5417 153.531 34.625C153.094 33.7083 152.448 32.9792 151.594 32.4375C150.76 31.875 149.729 31.5938 148.5 31.5938C147.188 31.5938 146.115 31.875 145.281 32.4375C144.448 32.9792 143.802 33.7292 143.344 34.6875C142.885 35.625 142.562 36.6979 142.375 37.9062C142.208 39.0938 142.125 40.3438 142.125 41.6562V42.5625C142.125 43.875 142.208 45.1354 142.375 46.3438C142.542 47.5521 142.854 48.625 143.312 49.5625C143.792 50.5 144.448 51.2396 145.281 51.7812C146.115 52.3229 147.198 52.5938 148.531 52.5938ZM176.719 11V59H167.719V11H176.719ZM175.438 40.9062H172.969C172.99 38.5521 173.302 36.3854 173.906 34.4062C174.51 32.4062 175.375 30.6771 176.5 29.2188C177.625 27.7396 178.969 26.5938 180.531 25.7812C182.115 24.9688 183.865 24.5625 185.781 24.5625C187.448 24.5625 188.958 24.8021 190.312 25.2812C191.688 25.7396 192.865 26.4896 193.844 27.5312C194.844 28.5521 195.615 29.8958 196.156 31.5625C196.698 33.2292 196.969 35.25 196.969 37.625V59H187.906V37.5625C187.906 36.0625 187.688 34.8854 187.25 34.0312C186.833 33.1562 186.219 32.5417 185.406 32.1875C184.615 31.8125 183.635 31.625 182.469 31.625C181.177 31.625 180.073 31.8646 179.156 32.3438C178.26 32.8229 177.542 33.4896 177 34.3438C176.458 35.1771 176.062 36.1562 175.812 37.2812C175.562 38.4062 175.438 39.6146 175.438 40.9062Z" fill="#BA27A6"/>
<path d="M254.562 11V59H245.531V11H254.562ZM280.25 51.375V36.3125C280.25 35.2292 280.073 34.3021 279.719 33.5312C279.365 32.7396 278.812 32.125 278.062 31.6875C277.333 31.25 276.385 31.0312 275.219 31.0312C274.219 31.0312 273.354 31.2083 272.625 31.5625C271.896 31.8958 271.333 32.3854 270.938 33.0312C270.542 33.6562 270.344 34.3958 270.344 35.25H261.344C261.344 33.8125 261.677 32.4479 262.344 31.1562C263.01 29.8646 263.979 28.7292 265.25 27.75C266.521 26.75 268.031 25.9688 269.781 25.4062C271.552 24.8438 273.531 24.5625 275.719 24.5625C278.344 24.5625 280.677 25 282.719 25.875C284.76 26.75 286.365 28.0625 287.531 29.8125C288.719 31.5625 289.312 33.75 289.312 36.375V50.8438C289.312 52.6979 289.427 54.2188 289.656 55.4062C289.885 56.5729 290.219 57.5938 290.656 58.4688V59H281.562C281.125 58.0833 280.792 56.9375 280.562 55.5625C280.354 54.1667 280.25 52.7708 280.25 51.375ZM281.438 38.4062L281.5 43.5H276.469C275.281 43.5 274.25 43.6354 273.375 43.9062C272.5 44.1771 271.781 44.5625 271.219 45.0625C270.656 45.5417 270.24 46.1042 269.969 46.75C269.719 47.3958 269.594 48.1042 269.594 48.875C269.594 49.6458 269.771 50.3438 270.125 50.9688C270.479 51.5729 270.99 52.0521 271.656 52.4062C272.323 52.7396 273.104 52.9062 274 52.9062C275.354 52.9062 276.531 52.6354 277.531 52.0938C278.531 51.5521 279.302 50.8854 279.844 50.0938C280.406 49.3021 280.698 48.5521 280.719 47.8438L283.094 51.6562C282.76 52.5104 282.302 53.3958 281.719 54.3125C281.156 55.2292 280.438 56.0938 279.562 56.9062C278.688 57.6979 277.635 58.3542 276.406 58.875C275.177 59.375 273.719 59.625 272.031 59.625C269.885 59.625 267.938 59.1979 266.188 58.3438C264.458 57.4688 263.083 56.2708 262.062 54.75C261.062 53.2083 260.562 51.4583 260.562 49.5C260.562 47.7292 260.896 46.1562 261.562 44.7812C262.229 43.4062 263.208 42.25 264.5 41.3125C265.812 40.3542 267.448 39.6354 269.406 39.1562C271.365 38.6562 273.635 38.4062 276.219 38.4062H281.438ZM310.219 52.5938C311.323 52.5938 312.302 52.3854 313.156 51.9688C314.01 51.5312 314.677 50.9271 315.156 50.1562C315.656 49.3646 315.917 48.4375 315.938 47.375H324.406C324.385 49.75 323.75 51.8646 322.5 53.7188C321.25 55.5521 319.573 57 317.469 58.0625C315.365 59.1042 313.01 59.625 310.406 59.625C307.781 59.625 305.49 59.1875 303.531 58.3125C301.594 57.4375 299.979 56.2292 298.688 54.6875C297.396 53.125 296.427 51.3125 295.781 49.25C295.135 47.1667 294.812 44.9375 294.812 42.5625V41.6562C294.812 39.2604 295.135 37.0312 295.781 34.9688C296.427 32.8854 297.396 31.0729 298.688 29.5312C299.979 27.9688 301.594 26.75 303.531 25.875C305.469 25 307.74 24.5625 310.344 24.5625C313.115 24.5625 315.542 25.0938 317.625 26.1562C319.729 27.2188 321.375 28.7396 322.562 30.7188C323.771 32.6771 324.385 35 324.406 37.6875H315.938C315.917 36.5625 315.677 35.5417 315.219 34.625C314.781 33.7083 314.135 32.9792 313.281 32.4375C312.448 31.875 311.417 31.5938 310.188 31.5938C308.875 31.5938 307.802 31.875 306.969 32.4375C306.135 32.9792 305.49 33.7292 305.031 34.6875C304.573 35.625 304.25 36.6979 304.062 37.9062C303.896 39.0938 303.812 40.3438 303.812 41.6562V42.5625C303.812 43.875 303.896 45.1354 304.062 46.3438C304.229 47.5521 304.542 48.625 305 49.5625C305.479 50.5 306.135 51.2396 306.969 51.7812C307.802 52.3229 308.885 52.5938 310.219 52.5938ZM345.188 59.625C342.562 59.625 340.208 59.2083 338.125 58.375C336.042 57.5208 334.271 56.3438 332.812 54.8438C331.375 53.3438 330.271 51.6042 329.5 49.625C328.729 47.625 328.344 45.5 328.344 43.25V42C328.344 39.4375 328.708 37.0938 329.438 34.9688C330.167 32.8438 331.208 31 332.562 29.4375C333.938 27.875 335.604 26.6771 337.562 25.8438C339.521 24.9896 341.729 24.5625 344.188 24.5625C346.583 24.5625 348.708 24.9583 350.562 25.75C352.417 26.5417 353.969 27.6667 355.219 29.125C356.49 30.5833 357.448 32.3333 358.094 34.375C358.74 36.3958 359.062 38.6458 359.062 41.125V44.875H332.188V38.875H350.219V38.1875C350.219 36.9375 349.99 35.8229 349.531 34.8438C349.094 33.8438 348.427 33.0521 347.531 32.4688C346.635 31.8854 345.49 31.5938 344.094 31.5938C342.906 31.5938 341.885 31.8542 341.031 32.375C340.177 32.8958 339.479 33.625 338.938 34.5625C338.417 35.5 338.021 36.6042 337.75 37.875C337.5 39.125 337.375 40.5 337.375 42V43.25C337.375 44.6042 337.562 45.8542 337.938 47C338.333 48.1458 338.885 49.1354 339.594 49.9688C340.323 50.8021 341.198 51.4479 342.219 51.9062C343.26 52.3646 344.438 52.5938 345.75 52.5938C347.375 52.5938 348.885 52.2812 350.281 51.6562C351.698 51.0104 352.917 50.0417 353.938 48.75L358.312 53.5C357.604 54.5208 356.635 55.5 355.406 56.4375C354.198 57.375 352.74 58.1458 351.031 58.75C349.323 59.3333 347.375 59.625 345.188 59.625ZM382.469 49.6562C382.469 49.0104 382.281 48.4271 381.906 47.9062C381.531 47.3854 380.833 46.9062 379.812 46.4688C378.812 46.0104 377.365 45.5938 375.469 45.2188C373.76 44.8438 372.167 44.375 370.688 43.8125C369.229 43.2292 367.958 42.5312 366.875 41.7188C365.812 40.9062 364.979 39.9479 364.375 38.8438C363.771 37.7188 363.469 36.4375 363.469 35C363.469 33.5833 363.771 32.25 364.375 31C365 29.75 365.885 28.6458 367.031 27.6875C368.198 26.7083 369.615 25.9479 371.281 25.4062C372.969 24.8438 374.865 24.5625 376.969 24.5625C379.906 24.5625 382.427 25.0312 384.531 25.9688C386.656 26.9062 388.281 28.1979 389.406 29.8438C390.552 31.4688 391.125 33.3229 391.125 35.4062H382.125C382.125 34.5312 381.938 33.75 381.562 33.0625C381.208 32.3542 380.646 31.8021 379.875 31.4062C379.125 30.9896 378.146 30.7812 376.938 30.7812C375.938 30.7812 375.073 30.9583 374.344 31.3125C373.615 31.6458 373.052 32.1042 372.656 32.6875C372.281 33.25 372.094 33.875 372.094 34.5625C372.094 35.0833 372.198 35.5521 372.406 35.9688C372.635 36.3646 373 36.7292 373.5 37.0625C374 37.3958 374.646 37.7083 375.438 38C376.25 38.2708 377.25 38.5208 378.438 38.75C380.875 39.25 383.052 39.9062 384.969 40.7188C386.885 41.5104 388.406 42.5938 389.531 43.9688C390.656 45.3229 391.219 47.1042 391.219 49.3125C391.219 50.8125 390.885 52.1875 390.219 53.4375C389.552 54.6875 388.594 55.7812 387.344 56.7188C386.094 57.6354 384.594 58.3542 382.844 58.875C381.115 59.375 379.167 59.625 377 59.625C373.854 59.625 371.188 59.0625 369 57.9375C366.833 56.8125 365.188 55.3854 364.062 53.6562C362.958 51.9062 362.406 50.1146 362.406 48.2812H370.938C370.979 49.5104 371.292 50.5 371.875 51.25C372.479 52 373.24 52.5417 374.156 52.875C375.094 53.2083 376.104 53.375 377.188 53.375C378.354 53.375 379.323 53.2188 380.094 52.9062C380.865 52.5729 381.448 52.1354 381.844 51.5938C382.26 51.0312 382.469 50.3854 382.469 49.6562Z" fill="#702766"/>
<path fill-rule="evenodd" clip-rule="evenodd" d="M223.838 37.1581C220.553 36.813 217.683 35.0214 215.837 32.4107C214.783 32.9484 213.893 33.8289 213.354 34.9847L205.324 52.2045C204.041 54.9575 205.232 58.2299 207.985 59.5136C210.738 60.7974 214.01 59.6063 215.294 56.8533L223.324 39.6335C223.697 38.8318 223.861 37.986 223.838 37.1581Z" fill="#702766"/>
<path fill-rule="evenodd" clip-rule="evenodd" d="M225 43.0625C234.389 43.0625 242 35.2135 242 25.5312C242 15.849 234.389 8 225 8C215.611 8 208 15.849 208 25.5312C208 35.2135 215.611 43.0625 225 43.0625ZM225 37.2188C231.259 37.2188 236.333 31.9861 236.333 25.5313C236.333 19.0764 231.259 13.8438 225 13.8438C218.741 13.8438 213.667 19.0764 213.667 25.5313C213.667 31.9861 218.741 37.2188 225 37.2188Z" fill="#702766"/>
</g>
<defs>
<clipPath id="clip0_1_2">
<rect width="394" height="75" fill="white"/>
</clipPath>
</defs>
</svg>
