<svg width="100" height="100" viewBox="0 0 100 100" fill="none" xmlns="http://www.w3.org/2000/svg">
<path fill-rule="evenodd" clip-rule="evenodd" d="M100 50C100 77.6142 77.6142 100 50 100C22.3858 100 0 77.6142 0 50C0 22.3858 22.3858 0 50 0C77.6142 0 100 22.3858 100 50ZM43 27C43 23.134 46.134 20 50 20C53.866 20 57 23.134 57 27V44H74.5C78.0899 44 81 46.9101 81 50.5C81 54.0899 78.0899 57 74.5 57H57V74C57 77.866 53.866 81 50 81C46.134 81 43 77.866 43 74V57H25.5C21.9102 57 19 54.0899 19 50.5C19 46.9101 21.9101 44 25.5 44H43V27Z" fill="black"/>
</svg>
