<svg width="100" height="100" viewBox="0 0 100 100" fill="none" xmlns="http://www.w3.org/2000/svg">
<path d="M10 38.125V18.75C10 16.6719 11.9107 15 14.2857 15H36.4286C37.6071 15 38.5714 15.8438 38.5714 16.875V23.125C38.5714 24.1562 37.6071 25 36.4286 25H21.4286V38.125C21.4286 39.1562 20.4643 40 19.2857 40H12.1429C10.9643 40 10 39.1562 10 38.125ZM61.4286 16.875V23.125C61.4286 24.1562 62.3929 25 63.5714 25H78.5714V38.125C78.5714 39.1562 79.5357 40 80.7143 40H87.8571C89.0357 40 90 39.1562 90 38.125V18.75C90 16.6719 88.0893 15 85.7143 15H63.5714C62.3929 15 61.4286 15.8438 61.4286 16.875ZM87.8571 60H80.7143C79.5357 60 78.5714 60.8438 78.5714 61.875V75H63.5714C62.3929 75 61.4286 75.8438 61.4286 76.875V83.125C61.4286 84.1562 62.3929 85 63.5714 85H85.7143C88.0893 85 90 83.3281 90 81.25V61.875C90 60.8438 89.0357 60 87.8571 60ZM38.5714 83.125V76.875C38.5714 75.8438 37.6071 75 36.4286 75H21.4286V61.875C21.4286 60.8438 20.4643 60 19.2857 60H12.1429C10.9643 60 10 60.8438 10 61.875V81.25C10 83.3281 11.9107 85 14.2857 85H36.4286C37.6071 85 38.5714 84.1562 38.5714 83.125Z" fill="black"/>
</svg>
