<svg width="100" height="100" viewBox="0 0 100 100" fill="none" xmlns="http://www.w3.org/2000/svg">
<path fill-rule="evenodd" clip-rule="evenodd" d="M43.1465 25C43.6992 23.4361 44 21.7532 44 20C44 18.2468 43.6992 16.5639 43.1465 15H90C92.7614 15 95 17.2386 95 20C95 22.7614 92.7614 25 90 25H43.1465ZM14.8535 25H11C8.23857 25 6 22.7614 6 20C6 17.2386 8.23858 15 11 15H14.8535C14.3008 16.5639 14 18.2468 14 20C14 21.7532 14.3008 23.4361 14.8535 25Z" fill="#1E1E1E"/>
<path fill-rule="evenodd" clip-rule="evenodd" d="M43.1465 84C43.6992 82.4361 44 80.7532 44 79C44 77.2468 43.6992 75.5639 43.1465 74H90C92.7614 74 95 76.2386 95 79C95 81.7614 92.7614 84 90 84H43.1465ZM14.8535 84H11C8.23858 84 6 81.7614 6 79C6 76.2386 8.23858 74 11 74H14.8535C14.3008 75.5639 14 77.2468 14 79C14 80.7532 14.3008 82.4361 14.8535 84Z" fill="#1E1E1E"/>
<path fill-rule="evenodd" clip-rule="evenodd" d="M29 35C37.2843 35 44 28.2843 44 20C44 11.7157 37.2843 5 29 5C20.7157 5 14 11.7157 14 20C14 28.2843 20.7157 35 29 35ZM29 30C34.5228 30 39 25.5228 39 20C39 14.4772 34.5228 10 29 10C23.4772 10 19 14.4772 19 20C19 25.5228 23.4772 30 29 30Z" fill="#1E1E1E"/>
<path fill-rule="evenodd" clip-rule="evenodd" d="M57.8535 45C57.3008 46.5639 57 48.2468 57 50C57 51.7532 57.3008 53.4361 57.8535 55H11C8.23858 55 6 52.7614 6 50C6 47.2386 8.23858 45 11 45L57.8535 45ZM86.1465 45H90C92.7614 45 95 47.2386 95 50C95 52.7614 92.7614 55 90 55H86.1465C86.6992 53.4361 87 51.7532 87 50C87 48.2468 86.6992 46.5639 86.1465 45Z" fill="#1E1E1E"/>
<path fill-rule="evenodd" clip-rule="evenodd" d="M72 35C63.7157 35 57 41.7157 57 50C57 58.2843 63.7157 65 72 65C80.2843 65 87 58.2843 87 50C87 41.7157 80.2843 35 72 35ZM72 40C66.4772 40 62 44.4772 62 50C62 55.5228 66.4772 60 72 60C77.5228 60 82 55.5228 82 50C82 44.4772 77.5228 40 72 40Z" fill="#1E1E1E"/>
<path fill-rule="evenodd" clip-rule="evenodd" d="M29 94C37.2843 94 44 87.2843 44 79C44 70.7157 37.2843 64 29 64C20.7157 64 14 70.7157 14 79C14 87.2843 20.7157 94 29 94ZM29 89C34.5228 89 39 84.5228 39 79C39 73.4772 34.5228 69 29 69C23.4772 69 19 73.4772 19 79C19 84.5228 23.4772 89 29 89Z" fill="#1E1E1E"/>
</svg>
