<svg width="500" height="100" viewBox="0 0 500 100" fill="none" xmlns="http://www.w3.org/2000/svg">
<path d="M80.75 60.0938C80.75 59.2812 80.625 58.5521 80.375 57.9062C80.1458 57.2396 79.7083 56.6354 79.0625 56.0938C78.4167 55.5312 77.5104 54.9792 76.3438 54.4375C75.1771 53.8958 73.6667 53.3333 71.8125 52.75C69.75 52.0833 67.7917 51.3333 65.9375 50.5C64.1042 49.6667 62.4792 48.6979 61.0625 47.5938C59.6667 46.4688 58.5625 45.1667 57.75 43.6875C56.9583 42.2083 56.5625 40.4896 56.5625 38.5312C56.5625 36.6354 56.9792 34.9167 57.8125 33.375C58.6458 31.8125 59.8125 30.4792 61.3125 29.375C62.8125 28.25 64.5833 27.3854 66.625 26.7812C68.6875 26.1771 70.9479 25.875 73.4062 25.875C76.7604 25.875 79.6875 26.4792 82.1875 27.6875C84.6875 28.8958 86.625 30.5521 88 32.6562C89.3958 34.7604 90.0938 37.1667 90.0938 39.875H80.7812C80.7812 38.5417 80.5 37.375 79.9375 36.375C79.3958 35.3542 78.5625 34.5521 77.4375 33.9688C76.3333 33.3854 74.9375 33.0938 73.25 33.0938C71.625 33.0938 70.2708 33.3438 69.1875 33.8438C68.1042 34.3229 67.2917 34.9792 66.75 35.8125C66.2083 36.625 65.9375 37.5417 65.9375 38.5625C65.9375 39.3333 66.125 40.0312 66.5 40.6562C66.8958 41.2812 67.4792 41.8646 68.25 42.4062C69.0208 42.9479 69.9688 43.4583 71.0938 43.9375C72.2188 44.4167 73.5208 44.8854 75 45.3438C77.4792 46.0938 79.6562 46.9375 81.5312 47.875C83.4271 48.8125 85.0104 49.8646 86.2812 51.0312C87.5521 52.1979 88.5104 53.5208 89.1562 55C89.8021 56.4792 90.125 58.1562 90.125 60.0312C90.125 62.0104 89.7396 63.7812 88.9688 65.3438C88.1979 66.9062 87.0833 68.2292 85.625 69.3125C84.1667 70.3958 82.4271 71.2188 80.4062 71.7812C78.3854 72.3438 76.125 72.625 73.625 72.625C71.375 72.625 69.1562 72.3333 66.9688 71.75C64.7812 71.1458 62.7917 70.2396 61 69.0312C59.2292 67.8229 57.8125 66.2812 56.75 64.4062C55.6875 62.5312 55.1562 60.3125 55.1562 57.75H64.5625C64.5625 59.1667 64.7812 60.3646 65.2188 61.3438C65.6562 62.3229 66.2708 63.1146 67.0625 63.7188C67.875 64.3229 68.8333 64.7604 69.9375 65.0312C71.0625 65.3021 72.2917 65.4375 73.625 65.4375C75.25 65.4375 76.5833 65.2083 77.625 64.75C78.6875 64.2917 79.4688 63.6562 79.9688 62.8438C80.4896 62.0312 80.75 61.1146 80.75 60.0938ZM111.5 72.625C108.875 72.625 106.521 72.2083 104.438 71.375C102.354 70.5208 100.583 69.3438 99.125 67.8438C97.6875 66.3438 96.5833 64.6042 95.8125 62.625C95.0417 60.625 94.6562 58.5 94.6562 56.25V55C94.6562 52.4375 95.0208 50.0938 95.75 47.9688C96.4792 45.8438 97.5208 44 98.875 42.4375C100.25 40.875 101.917 39.6771 103.875 38.8438C105.833 37.9896 108.042 37.5625 110.5 37.5625C112.896 37.5625 115.021 37.9583 116.875 38.75C118.729 39.5417 120.281 40.6667 121.531 42.125C122.802 43.5833 123.76 45.3333 124.406 47.375C125.052 49.3958 125.375 51.6458 125.375 54.125V57.875H98.5V51.875H116.531V51.1875C116.531 49.9375 116.302 48.8229 115.844 47.8438C115.406 46.8438 114.74 46.0521 113.844 45.4688C112.948 44.8854 111.802 44.5938 110.406 44.5938C109.219 44.5938 108.198 44.8542 107.344 45.375C106.49 45.8958 105.792 46.625 105.25 47.5625C104.729 48.5 104.333 49.6042 104.062 50.875C103.812 52.125 103.688 53.5 103.688 55V56.25C103.688 57.6042 103.875 58.8542 104.25 60C104.646 61.1458 105.198 62.1354 105.906 62.9688C106.635 63.8021 107.51 64.4479 108.531 64.9062C109.573 65.3646 110.75 65.5938 112.062 65.5938C113.688 65.5938 115.198 65.2812 116.594 64.6562C118.01 64.0104 119.229 63.0417 120.25 61.75L124.625 66.5C123.917 67.5208 122.948 68.5 121.719 69.4375C120.51 70.375 119.052 71.1458 117.344 71.75C115.635 72.3333 113.688 72.625 111.5 72.625ZM148.75 64.375V49.3125C148.75 48.2292 148.573 47.3021 148.219 46.5312C147.865 45.7396 147.312 45.125 146.562 44.6875C145.833 44.25 144.885 44.0312 143.719 44.0312C142.719 44.0312 141.854 44.2083 141.125 44.5625C140.396 44.8958 139.833 45.3854 139.438 46.0312C139.042 46.6562 138.844 47.3958 138.844 48.25H129.844C129.844 46.8125 130.177 45.4479 130.844 44.1562C131.51 42.8646 132.479 41.7292 133.75 40.75C135.021 39.75 136.531 38.9688 138.281 38.4062C140.052 37.8438 142.031 37.5625 144.219 37.5625C146.844 37.5625 149.177 38 151.219 38.875C153.26 39.75 154.865 41.0625 156.031 42.8125C157.219 44.5625 157.812 46.75 157.812 49.375V63.8438C157.812 65.6979 157.927 67.2188 158.156 68.4062C158.385 69.5729 158.719 70.5938 159.156 71.4688V72H150.062C149.625 71.0833 149.292 69.9375 149.062 68.5625C148.854 67.1667 148.75 65.7708 148.75 64.375ZM149.938 51.4062L150 56.5H144.969C143.781 56.5 142.75 56.6354 141.875 56.9062C141 57.1771 140.281 57.5625 139.719 58.0625C139.156 58.5417 138.74 59.1042 138.469 59.75C138.219 60.3958 138.094 61.1042 138.094 61.875C138.094 62.6458 138.271 63.3438 138.625 63.9688C138.979 64.5729 139.49 65.0521 140.156 65.4062C140.823 65.7396 141.604 65.9062 142.5 65.9062C143.854 65.9062 145.031 65.6354 146.031 65.0938C147.031 64.5521 147.802 63.8854 148.344 63.0938C148.906 62.3021 149.198 61.5521 149.219 60.8438L151.594 64.6562C151.26 65.5104 150.802 66.3958 150.219 67.3125C149.656 68.2292 148.938 69.0938 148.062 69.9062C147.188 70.6979 146.135 71.3542 144.906 71.875C143.677 72.375 142.219 72.625 140.531 72.625C138.385 72.625 136.438 72.1979 134.688 71.3438C132.958 70.4688 131.583 69.2708 130.562 67.75C129.562 66.2083 129.062 64.4583 129.062 62.5C129.062 60.7292 129.396 59.1562 130.062 57.7812C130.729 56.4062 131.708 55.25 133 54.3125C134.312 53.3542 135.948 52.6354 137.906 52.1562C139.865 51.6562 142.135 51.4062 144.719 51.4062H149.938ZM173.75 45.5625V72H164.75V38.1875H173.219L173.75 45.5625ZM183.938 37.9688L183.781 46.3125C183.344 46.25 182.812 46.1979 182.188 46.1562C181.583 46.0938 181.031 46.0625 180.531 46.0625C179.26 46.0625 178.156 46.2292 177.219 46.5625C176.302 46.875 175.531 47.3438 174.906 47.9688C174.302 48.5938 173.844 49.3542 173.531 50.25C173.24 51.1458 173.073 52.1667 173.031 53.3125L171.219 52.75C171.219 50.5625 171.438 48.5521 171.875 46.7188C172.312 44.8646 172.948 43.25 173.781 41.875C174.635 40.5 175.677 39.4375 176.906 38.6875C178.135 37.9375 179.542 37.5625 181.125 37.5625C181.625 37.5625 182.135 37.6042 182.656 37.6875C183.177 37.75 183.604 37.8438 183.938 37.9688ZM201.531 65.5938C202.635 65.5938 203.615 65.3854 204.469 64.9688C205.323 64.5312 205.99 63.9271 206.469 63.1562C206.969 62.3646 207.229 61.4375 207.25 60.375H215.719C215.698 62.75 215.062 64.8646 213.812 66.7188C212.562 68.5521 210.885 70 208.781 71.0625C206.677 72.1042 204.323 72.625 201.719 72.625C199.094 72.625 196.802 72.1875 194.844 71.3125C192.906 70.4375 191.292 69.2292 190 67.6875C188.708 66.125 187.74 64.3125 187.094 62.25C186.448 60.1667 186.125 57.9375 186.125 55.5625V54.6562C186.125 52.2604 186.448 50.0312 187.094 47.9688C187.74 45.8854 188.708 44.0729 190 42.5312C191.292 40.9688 192.906 39.75 194.844 38.875C196.781 38 199.052 37.5625 201.656 37.5625C204.427 37.5625 206.854 38.0938 208.938 39.1562C211.042 40.2188 212.688 41.7396 213.875 43.7188C215.083 45.6771 215.698 48 215.719 50.6875H207.25C207.229 49.5625 206.99 48.5417 206.531 47.625C206.094 46.7083 205.448 45.9792 204.594 45.4375C203.76 44.875 202.729 44.5938 201.5 44.5938C200.188 44.5938 199.115 44.875 198.281 45.4375C197.448 45.9792 196.802 46.7292 196.344 47.6875C195.885 48.625 195.562 49.6979 195.375 50.9062C195.208 52.0938 195.125 53.3438 195.125 54.6562V55.5625C195.125 56.875 195.208 58.1354 195.375 59.3438C195.542 60.5521 195.854 61.625 196.312 62.5625C196.792 63.5 197.448 64.2396 198.281 64.7812C199.115 65.3229 200.198 65.5938 201.531 65.5938ZM229.719 24V72H220.719V24H229.719ZM228.438 53.9062H225.969C225.99 51.5521 226.302 49.3854 226.906 47.4062C227.51 45.4062 228.375 43.6771 229.5 42.2188C230.625 40.7396 231.969 39.5938 233.531 38.7812C235.115 37.9688 236.865 37.5625 238.781 37.5625C240.448 37.5625 241.958 37.8021 243.312 38.2812C244.688 38.7396 245.865 39.4896 246.844 40.5312C247.844 41.5521 248.615 42.8958 249.156 44.5625C249.698 46.2292 249.969 48.25 249.969 50.625V72H240.906V50.5625C240.906 49.0625 240.688 47.8854 240.25 47.0312C239.833 46.1562 239.219 45.5417 238.406 45.1875C237.615 44.8125 236.635 44.625 235.469 44.625C234.177 44.625 233.073 44.8646 232.156 45.3438C231.26 45.8229 230.542 46.4896 230 47.3438C229.458 48.1771 229.062 49.1562 228.812 50.2812C228.562 51.4062 228.438 52.6146 228.438 53.9062Z" fill="#BA27A6"/>
<path d="M307.562 24V72H298.531V24H307.562ZM333.25 64.375V49.3125C333.25 48.2292 333.073 47.3021 332.719 46.5312C332.365 45.7396 331.812 45.125 331.062 44.6875C330.333 44.25 329.385 44.0312 328.219 44.0312C327.219 44.0312 326.354 44.2083 325.625 44.5625C324.896 44.8958 324.333 45.3854 323.938 46.0312C323.542 46.6562 323.344 47.3958 323.344 48.25H314.344C314.344 46.8125 314.677 45.4479 315.344 44.1562C316.01 42.8646 316.979 41.7292 318.25 40.75C319.521 39.75 321.031 38.9688 322.781 38.4062C324.552 37.8438 326.531 37.5625 328.719 37.5625C331.344 37.5625 333.677 38 335.719 38.875C337.76 39.75 339.365 41.0625 340.531 42.8125C341.719 44.5625 342.312 46.75 342.312 49.375V63.8438C342.312 65.6979 342.427 67.2188 342.656 68.4062C342.885 69.5729 343.219 70.5938 343.656 71.4688V72H334.562C334.125 71.0833 333.792 69.9375 333.562 68.5625C333.354 67.1667 333.25 65.7708 333.25 64.375ZM334.438 51.4062L334.5 56.5H329.469C328.281 56.5 327.25 56.6354 326.375 56.9062C325.5 57.1771 324.781 57.5625 324.219 58.0625C323.656 58.5417 323.24 59.1042 322.969 59.75C322.719 60.3958 322.594 61.1042 322.594 61.875C322.594 62.6458 322.771 63.3438 323.125 63.9688C323.479 64.5729 323.99 65.0521 324.656 65.4062C325.323 65.7396 326.104 65.9062 327 65.9062C328.354 65.9062 329.531 65.6354 330.531 65.0938C331.531 64.5521 332.302 63.8854 332.844 63.0938C333.406 62.3021 333.698 61.5521 333.719 60.8438L336.094 64.6562C335.76 65.5104 335.302 66.3958 334.719 67.3125C334.156 68.2292 333.438 69.0938 332.562 69.9062C331.688 70.6979 330.635 71.3542 329.406 71.875C328.177 72.375 326.719 72.625 325.031 72.625C322.885 72.625 320.938 72.1979 319.188 71.3438C317.458 70.4688 316.083 69.2708 315.062 67.75C314.062 66.2083 313.562 64.4583 313.562 62.5C313.562 60.7292 313.896 59.1562 314.562 57.7812C315.229 56.4062 316.208 55.25 317.5 54.3125C318.812 53.3542 320.448 52.6354 322.406 52.1562C324.365 51.6562 326.635 51.4062 329.219 51.4062H334.438ZM363.219 65.5938C364.323 65.5938 365.302 65.3854 366.156 64.9688C367.01 64.5312 367.677 63.9271 368.156 63.1562C368.656 62.3646 368.917 61.4375 368.938 60.375H377.406C377.385 62.75 376.75 64.8646 375.5 66.7188C374.25 68.5521 372.573 70 370.469 71.0625C368.365 72.1042 366.01 72.625 363.406 72.625C360.781 72.625 358.49 72.1875 356.531 71.3125C354.594 70.4375 352.979 69.2292 351.688 67.6875C350.396 66.125 349.427 64.3125 348.781 62.25C348.135 60.1667 347.812 57.9375 347.812 55.5625V54.6562C347.812 52.2604 348.135 50.0312 348.781 47.9688C349.427 45.8854 350.396 44.0729 351.688 42.5312C352.979 40.9688 354.594 39.75 356.531 38.875C358.469 38 360.74 37.5625 363.344 37.5625C366.115 37.5625 368.542 38.0938 370.625 39.1562C372.729 40.2188 374.375 41.7396 375.562 43.7188C376.771 45.6771 377.385 48 377.406 50.6875H368.938C368.917 49.5625 368.677 48.5417 368.219 47.625C367.781 46.7083 367.135 45.9792 366.281 45.4375C365.448 44.875 364.417 44.5938 363.188 44.5938C361.875 44.5938 360.802 44.875 359.969 45.4375C359.135 45.9792 358.49 46.7292 358.031 47.6875C357.573 48.625 357.25 49.6979 357.062 50.9062C356.896 52.0938 356.812 53.3438 356.812 54.6562V55.5625C356.812 56.875 356.896 58.1354 357.062 59.3438C357.229 60.5521 357.542 61.625 358 62.5625C358.479 63.5 359.135 64.2396 359.969 64.7812C360.802 65.3229 361.885 65.5938 363.219 65.5938ZM398.188 72.625C395.562 72.625 393.208 72.2083 391.125 71.375C389.042 70.5208 387.271 69.3438 385.812 67.8438C384.375 66.3438 383.271 64.6042 382.5 62.625C381.729 60.625 381.344 58.5 381.344 56.25V55C381.344 52.4375 381.708 50.0938 382.438 47.9688C383.167 45.8438 384.208 44 385.562 42.4375C386.938 40.875 388.604 39.6771 390.562 38.8438C392.521 37.9896 394.729 37.5625 397.188 37.5625C399.583 37.5625 401.708 37.9583 403.562 38.75C405.417 39.5417 406.969 40.6667 408.219 42.125C409.49 43.5833 410.448 45.3333 411.094 47.375C411.74 49.3958 412.062 51.6458 412.062 54.125V57.875H385.188V51.875H403.219V51.1875C403.219 49.9375 402.99 48.8229 402.531 47.8438C402.094 46.8438 401.427 46.0521 400.531 45.4688C399.635 44.8854 398.49 44.5938 397.094 44.5938C395.906 44.5938 394.885 44.8542 394.031 45.375C393.177 45.8958 392.479 46.625 391.938 47.5625C391.417 48.5 391.021 49.6042 390.75 50.875C390.5 52.125 390.375 53.5 390.375 55V56.25C390.375 57.6042 390.562 58.8542 390.938 60C391.333 61.1458 391.885 62.1354 392.594 62.9688C393.323 63.8021 394.198 64.4479 395.219 64.9062C396.26 65.3646 397.438 65.5938 398.75 65.5938C400.375 65.5938 401.885 65.2812 403.281 64.6562C404.698 64.0104 405.917 63.0417 406.938 61.75L411.312 66.5C410.604 67.5208 409.635 68.5 408.406 69.4375C407.198 70.375 405.74 71.1458 404.031 71.75C402.323 72.3333 400.375 72.625 398.188 72.625ZM435.469 62.6562C435.469 62.0104 435.281 61.4271 434.906 60.9062C434.531 60.3854 433.833 59.9062 432.812 59.4688C431.812 59.0104 430.365 58.5938 428.469 58.2188C426.76 57.8438 425.167 57.375 423.688 56.8125C422.229 56.2292 420.958 55.5312 419.875 54.7188C418.812 53.9062 417.979 52.9479 417.375 51.8438C416.771 50.7188 416.469 49.4375 416.469 48C416.469 46.5833 416.771 45.25 417.375 44C418 42.75 418.885 41.6458 420.031 40.6875C421.198 39.7083 422.615 38.9479 424.281 38.4062C425.969 37.8438 427.865 37.5625 429.969 37.5625C432.906 37.5625 435.427 38.0312 437.531 38.9688C439.656 39.9062 441.281 41.1979 442.406 42.8438C443.552 44.4688 444.125 46.3229 444.125 48.4062H435.125C435.125 47.5312 434.938 46.75 434.562 46.0625C434.208 45.3542 433.646 44.8021 432.875 44.4062C432.125 43.9896 431.146 43.7812 429.938 43.7812C428.938 43.7812 428.073 43.9583 427.344 44.3125C426.615 44.6458 426.052 45.1042 425.656 45.6875C425.281 46.25 425.094 46.875 425.094 47.5625C425.094 48.0833 425.198 48.5521 425.406 48.9688C425.635 49.3646 426 49.7292 426.5 50.0625C427 50.3958 427.646 50.7083 428.438 51C429.25 51.2708 430.25 51.5208 431.438 51.75C433.875 52.25 436.052 52.9062 437.969 53.7188C439.885 54.5104 441.406 55.5938 442.531 56.9688C443.656 58.3229 444.219 60.1042 444.219 62.3125C444.219 63.8125 443.885 65.1875 443.219 66.4375C442.552 67.6875 441.594 68.7812 440.344 69.7188C439.094 70.6354 437.594 71.3542 435.844 71.875C434.115 72.375 432.167 72.625 430 72.625C426.854 72.625 424.188 72.0625 422 70.9375C419.833 69.8125 418.188 68.3854 417.062 66.6562C415.958 64.9062 415.406 63.1146 415.406 61.2812H423.938C423.979 62.5104 424.292 63.5 424.875 64.25C425.479 65 426.24 65.5417 427.156 65.875C428.094 66.2083 429.104 66.375 430.188 66.375C431.354 66.375 432.323 66.2188 433.094 65.9062C433.865 65.5729 434.448 65.1354 434.844 64.5938C435.26 64.0312 435.469 63.3854 435.469 62.6562Z" fill="#702766"/>
<path fill-rule="evenodd" clip-rule="evenodd" d="M276.838 50.1581C273.553 49.813 270.683 48.0214 268.837 45.4107C267.783 45.9484 266.893 46.8289 266.354 47.9847L258.324 65.2045C257.041 67.9575 258.232 71.2299 260.985 72.5136C263.738 73.7974 267.01 72.6063 268.294 69.8533L276.324 52.6335C276.697 51.8318 276.861 50.986 276.838 50.1581Z" fill="#702766"/>
<path fill-rule="evenodd" clip-rule="evenodd" d="M278 56.0625C287.389 56.0625 295 48.2135 295 38.5312C295 28.849 287.389 21 278 21C268.611 21 261 28.849 261 38.5312C261 48.2135 268.611 56.0625 278 56.0625ZM278 50.2188C284.259 50.2188 289.333 44.9861 289.333 38.5313C289.333 32.0764 284.259 26.8438 278 26.8438C271.741 26.8438 266.667 32.0764 266.667 38.5313C266.667 44.9861 271.741 50.2188 278 50.2188Z" fill="#702766"/>
</svg>
