<svg width="100" height="100" viewBox="0 0 100 100" fill="none" xmlns="http://www.w3.org/2000/svg">
<g clip-path="url(#clip0_0_1)">
<rect width="100" height="100" rx="50" fill="white"/>
<path fill-rule="evenodd" clip-rule="evenodd" d="M56.7297 49.7297C65.5165 40.9429 65.5165 26.6967 56.7297 17.9099C47.9429 9.12309 33.6967 9.12309 24.9099 17.9099C16.1231 26.6967 16.1231 40.9429 24.9099 49.7297C33.6967 58.5165 47.9429 58.5165 56.7297 49.7297ZM53.5478 46.5477C60.5772 39.5183 60.5772 28.1213 53.5478 21.0919C46.5183 14.0625 35.1214 14.0625 28.0919 21.0919C21.0625 28.1213 21.0625 39.5183 28.0919 46.5477C35.1214 53.5772 46.5183 53.5772 53.5478 46.5477Z" fill="#BA27A6"/>
<path d="M51.4264 49.3761L55.669 45.1335L84.8017 74.2662C85.9733 75.4377 85.9733 77.3372 84.8017 78.5088V78.5088C83.6301 79.6804 81.7306 79.6804 80.5591 78.5088L51.4264 49.3761Z" fill="#BA27A6"/>
<rect x="50.0122" y="49.3761" width="8" height="6" transform="rotate(-45 50.0122 49.3761)" fill="#861C78"/>
<path d="M76.1751 75.5391L81.832 69.8822L85.3675 73.4178C86.9296 74.9799 86.9296 77.5125 85.3675 79.0746V79.0746C83.8054 80.6367 81.2728 80.6367 79.7107 79.0746L76.1751 75.5391Z" fill="#861C78"/>
<path d="M0 66H43C46.866 66 50 69.134 50 73V112H0V66Z" fill="#F88CE9"/>
<rect x="2" y="78" width="37" height="3" rx="1.5" fill="#F5F3EF"/>
<rect x="7" y="70" width="27" height="7" rx="1" fill="#F5F3EF"/>
</g>
<defs>
<clipPath id="clip0_0_1">
<rect width="100" height="100" rx="50" fill="white"/>
</clipPath>
</defs>
</svg>
