<svg width="100" height="100" viewBox="0 0 100 100" fill="none" xmlns="http://www.w3.org/2000/svg">
<path fill-rule="evenodd" clip-rule="evenodd" d="M21 27C21 21.4772 25.4772 17 31 17H50C55.5228 17 60 21.4772 60 27V40.6418H56.1V32.9104C56.1 27.3876 51.6229 22.9104 46.1 22.9104H34.9C29.3772 22.9104 24.9 27.3876 24.9 32.9105V67.0896C24.9 72.6124 29.3771 77.0896 34.9 77.0896H46.1C51.6228 77.0896 56.1 72.6124 56.1 67.0895V59.3582H60V73C60 78.5229 55.5228 83 50 83H31C25.4772 83 21 78.5228 21 73V27Z" fill="#FF0000"/>
<rect x="47" y="46" width="27" height="7" rx="2" fill="#FF0000"/>
<rect x="67.7376" y="38" width="15.7754" height="3.87154" rx="1.93577" transform="rotate(45 67.7376 38)" fill="#FF0000"/>
<rect x="65" y="58.1549" width="15.7754" height="3.87154" rx="1.93577" transform="rotate(-45 65 58.1549)" fill="#FF0000"/>
</svg>
