<svg width="83" height="36" viewBox="0 0 83 36" fill="none" xmlns="http://www.w3.org/2000/svg">
<rect x="4" y="4" width="75" height="28" rx="3" fill="#EA0000"/>
<path d="M7.75852 23V14.2727H11.2017C11.8636 14.2727 12.4276 14.3991 12.8935 14.652C13.3594 14.902 13.7145 15.25 13.9588 15.696C14.206 16.1392 14.3295 16.6506 14.3295 17.2301C14.3295 17.8097 14.2045 18.321 13.9545 18.7642C13.7045 19.2074 13.3423 19.5526 12.8679 19.7997C12.3963 20.0469 11.8253 20.1705 11.1548 20.1705H8.96023V18.6918H10.8565C11.2116 18.6918 11.5043 18.6307 11.7344 18.5085C11.9673 18.3835 12.1406 18.2116 12.2543 17.9929C12.3707 17.7713 12.429 17.517 12.429 17.2301C12.429 16.9403 12.3707 16.6875 12.2543 16.4716C12.1406 16.2528 11.9673 16.0838 11.7344 15.9645C11.5014 15.8423 11.206 15.7812 10.848 15.7812H9.60369V23H7.75852ZM15.494 23V16.4545H17.2539V17.5966H17.3221C17.4414 17.1903 17.6417 16.8835 17.9229 16.6761C18.2042 16.4659 18.5281 16.3608 18.8945 16.3608C18.9854 16.3608 19.0835 16.3665 19.1886 16.3778C19.2937 16.3892 19.386 16.4048 19.4656 16.4247V18.0355C19.3803 18.0099 19.2624 17.9872 19.1119 17.9673C18.9613 17.9474 18.8235 17.9375 18.6985 17.9375C18.4315 17.9375 18.1928 17.9957 17.9826 18.1122C17.7752 18.2259 17.6104 18.3849 17.4883 18.5895C17.369 18.794 17.3093 19.0298 17.3093 19.2969V23H15.494ZM23.0824 23.1278C22.4091 23.1278 21.8295 22.9915 21.3438 22.7188C20.8608 22.4432 20.4886 22.054 20.2273 21.5511C19.9659 21.0455 19.8352 20.4474 19.8352 19.7571C19.8352 19.0838 19.9659 18.4929 20.2273 17.9844C20.4886 17.4759 20.8565 17.0795 21.331 16.7955C21.8082 16.5114 22.3679 16.3693 23.0099 16.3693C23.4418 16.3693 23.8438 16.4389 24.2159 16.5781C24.5909 16.7145 24.9176 16.9205 25.196 17.196C25.4773 17.4716 25.696 17.8182 25.8523 18.2358C26.0085 18.6506 26.0866 19.1364 26.0866 19.6932V20.1918H20.5597V19.0668H24.3778C24.3778 18.8054 24.321 18.5739 24.2074 18.3722C24.0938 18.1705 23.9361 18.0128 23.7344 17.8991C23.5355 17.7827 23.304 17.7244 23.0398 17.7244C22.7642 17.7244 22.5199 17.7884 22.3068 17.9162C22.0966 18.0412 21.9318 18.2102 21.8125 18.4233C21.6932 18.6335 21.6321 18.8679 21.6293 19.1264V20.196C21.6293 20.5199 21.6889 20.7997 21.8082 21.0355C21.9304 21.2713 22.1023 21.4531 22.3239 21.581C22.5455 21.7088 22.8082 21.7727 23.1122 21.7727C23.3139 21.7727 23.4986 21.7443 23.6662 21.6875C23.8338 21.6307 23.9773 21.5455 24.0966 21.4318C24.2159 21.3182 24.3068 21.179 24.3693 21.0142L26.0483 21.125C25.9631 21.5284 25.7884 21.8807 25.5241 22.1818C25.2628 22.4801 24.9247 22.7131 24.5099 22.8807C24.098 23.0455 23.6222 23.1278 23.0824 23.1278ZM31.3494 18.696V20.1364H27.3693V18.696H31.3494ZM32.8963 23V16.4545H34.6562V17.5966H34.7244C34.8438 17.1903 35.044 16.8835 35.3253 16.6761C35.6065 16.4659 35.9304 16.3608 36.2969 16.3608C36.3878 16.3608 36.4858 16.3665 36.5909 16.3778C36.696 16.3892 36.7884 16.4048 36.8679 16.4247V18.0355C36.7827 18.0099 36.6648 17.9872 36.5142 17.9673C36.3636 17.9474 36.2259 17.9375 36.1009 17.9375C35.8338 17.9375 35.5952 17.9957 35.3849 18.1122C35.1776 18.2259 35.0128 18.3849 34.8906 18.5895C34.7713 18.794 34.7116 19.0298 34.7116 19.2969V23H32.8963ZM40.4847 23.1278C39.8114 23.1278 39.2319 22.9915 38.7461 22.7188C38.2631 22.4432 37.891 22.054 37.6296 21.5511C37.3683 21.0455 37.2376 20.4474 37.2376 19.7571C37.2376 19.0838 37.3683 18.4929 37.6296 17.9844C37.891 17.4759 38.2589 17.0795 38.7333 16.7955C39.2106 16.5114 39.7702 16.3693 40.4123 16.3693C40.8441 16.3693 41.2461 16.4389 41.6183 16.5781C41.9933 16.7145 42.32 16.9205 42.5984 17.196C42.8796 17.4716 43.0984 17.8182 43.2546 18.2358C43.4109 18.6506 43.489 19.1364 43.489 19.6932V20.1918H37.962V19.0668H41.7802C41.7802 18.8054 41.7234 18.5739 41.6097 18.3722C41.4961 18.1705 41.3384 18.0128 41.1367 17.8991C40.9379 17.7827 40.7063 17.7244 40.4421 17.7244C40.1665 17.7244 39.9222 17.7884 39.7092 17.9162C39.4989 18.0412 39.3342 18.2102 39.2148 18.4233C39.0955 18.6335 39.0344 18.8679 39.0316 19.1264V20.196C39.0316 20.5199 39.0913 20.7997 39.2106 21.0355C39.3327 21.2713 39.5046 21.4531 39.7262 21.581C39.9478 21.7088 40.2106 21.7727 40.5146 21.7727C40.7163 21.7727 40.9009 21.7443 41.0685 21.6875C41.2362 21.6307 41.3796 21.5455 41.4989 21.4318C41.6183 21.3182 41.7092 21.179 41.7717 21.0142L43.4506 21.125C43.3654 21.5284 43.1907 21.8807 42.9265 22.1818C42.6651 22.4801 42.3271 22.7131 41.9123 22.8807C41.5004 23.0455 41.0245 23.1278 40.4847 23.1278ZM46.489 14.2727V23H44.6737V14.2727H46.489ZM50.9261 23.1278C50.2528 23.1278 49.6733 22.9915 49.1875 22.7188C48.7045 22.4432 48.3324 22.054 48.071 21.5511C47.8097 21.0455 47.679 20.4474 47.679 19.7571C47.679 19.0838 47.8097 18.4929 48.071 17.9844C48.3324 17.4759 48.7003 17.0795 49.1747 16.7955C49.652 16.5114 50.2116 16.3693 50.8537 16.3693C51.2855 16.3693 51.6875 16.4389 52.0597 16.5781C52.4347 16.7145 52.7614 16.9205 53.0398 17.196C53.321 17.4716 53.5398 17.8182 53.696 18.2358C53.8523 18.6506 53.9304 19.1364 53.9304 19.6932V20.1918H48.4034V19.0668H52.2216C52.2216 18.8054 52.1648 18.5739 52.0511 18.3722C51.9375 18.1705 51.7798 18.0128 51.5781 17.8991C51.3793 17.7827 51.1477 17.7244 50.8835 17.7244C50.608 17.7244 50.3636 17.7884 50.1506 17.9162C49.9403 18.0412 49.7756 18.2102 49.6562 18.4233C49.5369 18.6335 49.4759 18.8679 49.473 19.1264V20.196C49.473 20.5199 49.5327 20.7997 49.652 21.0355C49.7741 21.2713 49.946 21.4531 50.1676 21.581C50.3892 21.7088 50.652 21.7727 50.956 21.7727C51.1577 21.7727 51.3423 21.7443 51.5099 21.6875C51.6776 21.6307 51.821 21.5455 51.9403 21.4318C52.0597 21.3182 52.1506 21.179 52.2131 21.0142L53.892 21.125C53.8068 21.5284 53.6321 21.8807 53.3679 22.1818C53.1065 22.4801 52.7685 22.7131 52.3537 22.8807C51.9418 23.0455 51.4659 23.1278 50.9261 23.1278ZM56.9815 23.1236C56.5639 23.1236 56.1918 23.0511 55.8651 22.9062C55.5384 22.7585 55.2798 22.5412 55.0895 22.2543C54.902 21.9645 54.8082 21.6037 54.8082 21.1719C54.8082 20.8082 54.875 20.5028 55.0085 20.2557C55.142 20.0085 55.3239 19.8097 55.554 19.6591C55.7841 19.5085 56.0455 19.3949 56.3381 19.3182C56.6335 19.2415 56.9432 19.1875 57.267 19.1562C57.6477 19.1165 57.9545 19.0795 58.1875 19.0455C58.4205 19.0085 58.5895 18.9545 58.6946 18.8835C58.7997 18.8125 58.8523 18.7074 58.8523 18.5682V18.5426C58.8523 18.2727 58.767 18.0639 58.5966 17.9162C58.429 17.7685 58.1903 17.6946 57.8807 17.6946C57.554 17.6946 57.294 17.767 57.1009 17.9119C56.9077 18.054 56.7798 18.233 56.7173 18.4489L55.0384 18.3125C55.1236 17.9148 55.2912 17.571 55.5412 17.2812C55.7912 16.9886 56.1136 16.7642 56.5085 16.608C56.9063 16.4489 57.3665 16.3693 57.8892 16.3693C58.2528 16.3693 58.6009 16.4119 58.9332 16.4972C59.2685 16.5824 59.5653 16.7145 59.8239 16.8935C60.0852 17.0724 60.2912 17.3026 60.4418 17.5838C60.5923 17.8622 60.6676 18.196 60.6676 18.5852V23H58.946V22.0923H58.8949C58.7898 22.2969 58.6491 22.4773 58.473 22.6335C58.2969 22.7869 58.0852 22.9077 57.8381 22.9957C57.5909 23.081 57.3054 23.1236 56.9815 23.1236ZM57.5014 21.8707C57.7685 21.8707 58.0043 21.8182 58.2088 21.7131C58.4134 21.6051 58.5739 21.4602 58.6903 21.2784C58.8068 21.0966 58.8651 20.8906 58.8651 20.6605V19.9659C58.8082 20.0028 58.7301 20.0369 58.6307 20.0682C58.5341 20.0966 58.4247 20.1236 58.3026 20.1491C58.1804 20.1719 58.0582 20.1932 57.9361 20.2131C57.8139 20.2301 57.7031 20.2457 57.6037 20.2599C57.3906 20.2912 57.2045 20.3409 57.0455 20.4091C56.8864 20.4773 56.7628 20.5696 56.6747 20.6861C56.5866 20.7997 56.5426 20.9418 56.5426 21.1122C56.5426 21.3594 56.6321 21.5483 56.8111 21.679C56.9929 21.8068 57.223 21.8707 57.5014 21.8707ZM67.522 18.321L65.8601 18.4233C65.8317 18.2812 65.7706 18.1534 65.6768 18.0398C65.5831 17.9233 65.4595 17.831 65.3061 17.7628C65.1555 17.6918 64.9751 17.6562 64.7649 17.6562C64.4837 17.6562 64.2464 17.7159 64.0533 17.8352C63.8601 17.9517 63.7635 18.108 63.7635 18.304C63.7635 18.4602 63.826 18.5923 63.951 18.7003C64.076 18.8082 64.2905 18.8949 64.5945 18.9602L65.7791 19.1989C66.4155 19.3295 66.8899 19.5398 67.2024 19.8295C67.5149 20.1193 67.6712 20.5 67.6712 20.9716C67.6712 21.4006 67.5447 21.777 67.2919 22.1009C67.0419 22.4247 66.6982 22.6776 66.2607 22.8594C65.826 23.0384 65.3246 23.1278 64.7564 23.1278C63.8899 23.1278 63.1996 22.9474 62.6854 22.5866C62.174 22.223 61.8743 21.7287 61.7862 21.1037L63.5717 21.0099C63.6257 21.2741 63.7564 21.4759 63.9638 21.6151C64.1712 21.7514 64.4368 21.8196 64.7607 21.8196C65.0788 21.8196 65.3345 21.7585 65.5277 21.6364C65.7237 21.5114 65.8232 21.3509 65.826 21.1548C65.8232 20.9901 65.7536 20.8551 65.6172 20.75C65.4808 20.642 65.2706 20.5597 64.9865 20.5028L63.853 20.277C63.2138 20.1491 62.7379 19.9276 62.4254 19.6122C62.1158 19.2969 61.9609 18.8949 61.9609 18.4062C61.9609 17.9858 62.0746 17.6236 62.3018 17.3196C62.532 17.0156 62.8544 16.7812 63.2692 16.6165C63.6868 16.4517 64.1754 16.3693 64.7351 16.3693C65.5618 16.3693 66.2124 16.544 66.6868 16.8935C67.1641 17.2429 67.4425 17.7187 67.522 18.321ZM71.7972 23.1278C71.1239 23.1278 70.5444 22.9915 70.0586 22.7188C69.5756 22.4432 69.2035 22.054 68.9421 21.5511C68.6808 21.0455 68.5501 20.4474 68.5501 19.7571C68.5501 19.0838 68.6808 18.4929 68.9421 17.9844C69.2035 17.4759 69.5714 17.0795 70.0458 16.7955C70.5231 16.5114 71.0827 16.3693 71.7248 16.3693C72.1566 16.3693 72.5586 16.4389 72.9308 16.5781C73.3058 16.7145 73.6325 16.9205 73.9109 17.196C74.1921 17.4716 74.4109 17.8182 74.5671 18.2358C74.7234 18.6506 74.8015 19.1364 74.8015 19.6932V20.1918H69.2745V19.0668H73.0927C73.0927 18.8054 73.0359 18.5739 72.9222 18.3722C72.8086 18.1705 72.6509 18.0128 72.4492 17.8991C72.2504 17.7827 72.0188 17.7244 71.7546 17.7244C71.479 17.7244 71.2347 17.7884 71.0217 17.9162C70.8114 18.0412 70.6467 18.2102 70.5273 18.4233C70.408 18.6335 70.3469 18.8679 70.3441 19.1264V20.196C70.3441 20.5199 70.4038 20.7997 70.5231 21.0355C70.6452 21.2713 70.8171 21.4531 71.0387 21.581C71.2603 21.7088 71.5231 21.7727 71.8271 21.7727C72.0288 21.7727 72.2134 21.7443 72.381 21.6875C72.5487 21.6307 72.6921 21.5455 72.8114 21.4318C72.9308 21.3182 73.0217 21.179 73.0842 21.0142L74.7631 21.125C74.6779 21.5284 74.5032 21.8807 74.239 22.1818C73.9776 22.4801 73.6396 22.7131 73.2248 22.8807C72.8129 23.0455 72.337 23.1278 71.7972 23.1278Z" fill="white"/>
</svg>
