<svg width="80" height="80" viewBox="0 0 80 80" fill="none" xmlns="http://www.w3.org/2000/svg">
<path d="M72.685 33.4717H70V33.3333H40V46.6667H58.8383C56.09 54.4283 48.705 60 40 60C28.955 60 20 51.045 20 40C20 28.955 28.955 20 40 20C45.0983 20 49.7367 21.9233 53.2683 25.065L62.6967 15.6367C56.7433 10.0883 48.78 6.66666 40 6.66666C21.5917 6.66666 6.66666 21.5917 6.66666 40C6.66666 58.4083 21.5917 73.3333 40 73.3333C58.4083 73.3333 73.3333 58.4083 73.3333 40C73.3333 37.765 73.1033 35.5833 72.685 33.4717Z" fill="#FBC02D"/>
<path d="M10.51 24.485L21.4617 32.5167C24.425 25.18 31.6017 20 40 20C45.0983 20 49.7367 21.9233 53.2683 25.065L62.6967 15.6367C56.7433 10.0883 48.78 6.66666 40 6.66666C27.1967 6.66666 16.0933 13.895 10.51 24.485Z" fill="#E53935"/>
<path d="M40 73.3333C48.61 73.3333 56.4333 70.0383 62.3483 64.68L52.0317 55.95C48.685 58.485 44.525 60 40 60C31.33 60 23.9683 54.4717 21.195 46.7567L10.325 55.1316C15.8417 65.9266 27.045 73.3333 40 73.3333Z" fill="#4CAF50"/>
<path d="M72.685 33.4717L72.6583 33.3333H70H40V46.6667H58.8383C57.5183 50.395 55.12 53.61 52.0267 55.9517L52.0317 55.9483L62.3483 64.6783C61.6183 65.3417 73.3333 56.6667 73.3333 40C73.3333 37.765 73.1033 35.5833 72.685 33.4717Z" fill="#1565C0"/>
</svg>
