<svg width="100" height="100" viewBox="0 0 100 100" fill="none" xmlns="http://www.w3.org/2000/svg">
<path fill-rule="evenodd" clip-rule="evenodd" d="M42.5638 26.8764C43.1228 25.4004 43.427 23.812 43.427 22.1573C43.427 20.5026 43.1228 18.9143 42.5639 17.4382H90.2809C92.8872 17.4382 95 19.551 95 22.1573C95 24.7636 92.8872 26.8764 90.2809 26.8764H42.5638ZM13.953 26.8764H9.7191C7.11281 26.8764 5 24.7636 5 22.1573C5 19.551 7.11281 17.4382 9.7191 17.4382H13.953C13.394 18.9143 13.0899 20.5026 13.0899 22.1573C13.0899 23.812 13.394 25.4004 13.953 26.8764Z" fill="black"/>
<path fill-rule="evenodd" clip-rule="evenodd" d="M42.5639 82.5618C43.1228 81.0858 43.427 79.4974 43.427 77.8427C43.427 76.188 43.1228 74.5996 42.5638 73.1236H90.2809C92.8872 73.1236 95 75.2364 95 77.8427C95 80.449 92.8872 82.5618 90.2809 82.5618H42.5639ZM13.953 82.5618H9.7191C7.11281 82.5618 5 80.449 5 77.8427C5 75.2364 7.11281 73.1236 9.7191 73.1236L13.953 73.1236C13.394 74.5996 13.0899 76.188 13.0899 77.8427C13.0899 79.4974 13.394 81.0858 13.953 82.5618Z" fill="black"/>
<path fill-rule="evenodd" clip-rule="evenodd" d="M28.2584 36.3146C36.6358 36.3146 43.427 29.9762 43.427 22.1573C43.427 14.3384 36.6358 8 28.2584 8C19.8811 8 13.0899 14.3384 13.0899 22.1573C13.0899 29.9762 19.8811 36.3146 28.2584 36.3146ZM28.2584 31.5955C33.8433 31.5955 38.3708 27.3699 38.3708 22.1573C38.3708 16.9447 33.8433 12.7191 28.2584 12.7191C22.6735 12.7191 18.1461 16.9447 18.1461 22.1573C18.1461 27.3699 22.6735 31.5955 28.2584 31.5955Z" fill="black"/>
<path fill-rule="evenodd" clip-rule="evenodd" d="M57.4362 45.7528C56.8772 47.2288 56.573 48.8172 56.573 50.4719C56.573 52.1266 56.8772 53.715 57.4361 55.191L9.7191 55.191C7.11282 55.191 5 53.0782 5 50.4719C5 47.8656 7.11282 45.7528 9.7191 45.7528L57.4362 45.7528ZM86.047 45.7528H90.2809C92.8872 45.7528 95 47.8656 95 50.4719C95 53.0782 92.8872 55.191 90.2809 55.191L86.047 55.191C86.606 53.715 86.9101 52.1266 86.9101 50.4719C86.9101 48.8172 86.606 47.2288 86.047 45.7528Z" fill="black"/>
<path fill-rule="evenodd" clip-rule="evenodd" d="M71.7416 36.3146C63.3642 36.3146 56.573 42.6531 56.573 50.4719C56.573 58.2908 63.3642 64.6292 71.7416 64.6292C80.1189 64.6292 86.9101 58.2908 86.9101 50.4719C86.9101 42.6531 80.1189 36.3146 71.7416 36.3146ZM71.7416 41.0337C66.1567 41.0337 61.6293 45.2593 61.6293 50.4719C61.6293 55.6845 66.1567 59.9101 71.7416 59.9101C77.3265 59.9101 81.854 55.6845 81.854 50.4719C81.854 45.2593 77.3265 41.0337 71.7416 41.0337Z" fill="black"/>
<path fill-rule="evenodd" clip-rule="evenodd" d="M28.2584 92C36.6358 92 43.427 85.6616 43.427 77.8427C43.427 70.0238 36.6358 63.6854 28.2584 63.6854C19.8811 63.6854 13.0899 70.0238 13.0899 77.8427C13.0899 85.6616 19.8811 92 28.2584 92ZM28.2584 87.2809C33.8433 87.2809 38.3708 83.0553 38.3708 77.8427C38.3708 72.6301 33.8433 68.4045 28.2584 68.4045C22.6735 68.4045 18.1461 72.6301 18.1461 77.8427C18.1461 83.0553 22.6735 87.2809 28.2584 87.2809Z" fill="black"/>
</svg>
