<svg width="100" height="100" viewBox="0 0 100 100" fill="none" xmlns="http://www.w3.org/2000/svg">
<g clip-path="url(#clip0_0_1)">
<path fill-rule="evenodd" clip-rule="evenodd" d="M50 82.9268C68.185 82.9268 82.9268 68.185 82.9268 50C82.9268 31.815 68.185 17.0732 50 17.0732C31.815 17.0732 17.0732 31.815 17.0732 50C17.0732 68.185 31.815 82.9268 50 82.9268ZM50.6097 73.1707C63.0698 73.1707 73.1707 63.0698 73.1707 50.6097C73.1707 38.1497 63.0698 28.0488 50.6097 28.0488C38.1497 28.0488 28.0488 38.1497 28.0488 50.6097C28.0488 63.0698 38.1497 73.1707 50.6097 73.1707Z" fill="black"/>
<path fill-rule="evenodd" clip-rule="evenodd" d="M50.6097 67.0732C59.7022 67.0732 67.0732 59.7022 67.0732 50.6097C67.0732 41.5173 59.7022 34.1463 50.6097 34.1463C41.5173 34.1463 34.1463 41.5173 34.1463 50.6097C34.1463 59.7022 41.5173 67.0732 50.6097 67.0732ZM50.6097 60.9756C56.3346 60.9756 60.9756 56.3347 60.9756 50.6098C60.9756 44.8849 56.3346 40.2439 50.6097 40.2439C44.8848 40.2439 40.2439 44.8849 40.2439 50.6098C40.2439 56.3347 44.8848 60.9756 50.6097 60.9756Z" fill="black"/>
<rect x="41.4634" width="17.0732" height="20.7317" rx="3" fill="black"/>
<rect x="41.4634" y="79.2683" width="17.0732" height="20.7317" rx="3" fill="black"/>
<rect x="20.6809" y="91.3916" width="17.0732" height="20.7317" rx="3" transform="rotate(-135 20.6809 91.3916)" fill="black"/>
<rect x="76.7321" y="35.3405" width="17.0732" height="20.7317" rx="3" transform="rotate(-135 76.7321 35.3405)" fill="black"/>
<rect y="58.5366" width="17.0732" height="20.7317" rx="3" transform="rotate(-90 0 58.5366)" fill="black"/>
<rect x="79.2683" y="58.5366" width="17.0732" height="20.7317" rx="3" transform="rotate(-90 79.2683 58.5366)" fill="black"/>
<rect x="8.60837" y="20.6809" width="17.0732" height="20.7317" rx="3" transform="rotate(-45 8.60837 20.6809)" fill="black"/>
<rect x="64.6595" y="76.7321" width="17.0732" height="20.7317" rx="3" transform="rotate(-45 64.6595 76.7321)" fill="black"/>
</g>
<defs>
<clipPath id="clip0_0_1">
<rect width="100" height="100" fill="white"/>
</clipPath>
</defs>
</svg>
