<svg width="100" height="100" viewBox="0 0 100 100" fill="none" xmlns="http://www.w3.org/2000/svg">
<g clip-path="url(#clip0_0_1)">
<path d="M75.3513 22.0454C73.6411 21.8747 72.2248 21.8234 71.1025 21.8913C70.0158 21.9628 69.0877 22.2481 68.3182 22.747C67.5843 23.2496 66.9521 23.9961 66.4214 24.9868C65.9299 25.9453 65.4225 27.2441 64.8991 28.8832L63.4026 28.7339L64.8113 18.4028L99.2302 21.8372L98.5698 32.2429L97.0733 32.0936C96.8841 30.3834 96.6255 29.0082 96.2975 27.9679C96.0086 26.8955 95.5542 26.0405 94.9341 25.4028C94.314 24.7652 93.4606 24.3022 92.3738 24.0138C91.287 23.7255 89.8707 23.4942 88.1248 23.32L84.8646 22.9947L81.7449 54.2603C81.6347 55.3648 81.6171 56.2627 81.692 56.9539C81.767 57.6451 81.9809 58.2062 82.3337 58.6373C82.7222 59.0719 83.2816 59.4156 84.0121 59.6684C84.7817 59.8891 85.7865 60.0973 87.0265 60.293L86.9145 61.4154L69.1706 59.6449L69.2826 58.5225C70.5368 58.5757 71.5451 58.5683 72.3075 58.5005C73.0735 58.397 73.6738 58.151 74.1084 57.7625C74.5822 57.342 74.9117 56.7451 75.0968 55.9719C75.3175 55.2023 75.4919 54.1761 75.6199 52.8934L78.665 22.376L75.3513 22.0454Z" fill="black"/>
<rect x="2.17776" y="38.8651" width="61" height="42" rx="8" transform="rotate(-5.34976 2.17776 38.8651)" stroke="black" stroke-width="4"/>
<circle cx="17.9665" cy="51.95" r="10.5" transform="rotate(-5.34976 17.9665 51.95)" fill="black"/>
<path d="M47.715 44.6446L65.4127 73.8719L35.7512 76.6495L47.715 44.6446Z" fill="black"/>
<path d="M47.715 44.6446L65.4127 73.8719L35.7512 76.6495L47.715 44.6446Z" fill="black"/>
<path d="M36.1381 52.788L50.0025 75.3149L26.697 77.4973L36.1381 52.788Z" fill="black"/>
<path d="M36.1381 52.788L50.0025 75.3149L26.697 77.4973L36.1381 52.788Z" fill="black"/>
<path d="M36.1381 52.788L50.0025 75.3149L26.697 77.4973L36.1381 52.788Z" fill="black"/>
</g>
<defs>
<clipPath id="clip0_0_1">
<rect width="100" height="100" fill="white"/>
</clipPath>
</defs>
</svg>
