<svg width="100" height="100" viewBox="0 0 100 100" fill="none" xmlns="http://www.w3.org/2000/svg">
<mask id="path-1-inside-1_0_1" fill="white">
<path fill-rule="evenodd" clip-rule="evenodd" d="M2 50.5C11.5098 34.0605 29.2842 23 49.642 23C69.9997 23 87.7742 34.0605 97.284 50.5C87.7742 66.9395 69.9997 78 49.642 78C29.2842 78 11.5098 66.9395 2 50.5Z"/>
</mask>
<path d="M2 50.5L-2.32803 47.9964L-3.7763 50.5L-2.32803 53.0036L2 50.5ZM97.284 50.5L101.612 53.0036L103.06 50.5L101.612 47.9964L97.284 50.5ZM6.32803 53.0036C14.9808 38.0455 31.1412 28 49.642 28V18C27.4272 18 8.03871 30.0754 -2.32803 47.9964L6.32803 53.0036ZM49.642 28C68.1427 28 84.3031 38.0455 92.9559 53.0036L101.612 47.9964C91.2453 30.0754 71.8567 18 49.642 18V28ZM92.9559 47.9964C84.3031 62.9544 68.1427 73 49.642 73V83C71.8567 83 91.2453 70.9246 101.612 53.0036L92.9559 47.9964ZM49.642 73C31.1412 73 14.9808 62.9545 6.32803 47.9964L-2.32803 53.0036C8.03871 70.9246 27.4272 83 49.642 83V73Z" fill="black" mask="url(#path-1-inside-1_0_1)"/>
<ellipse cx="49.85" cy="51.05" rx="17.05" ry="15.95" fill="black"/>
</svg>
