<svg width="90" height="90" viewBox="0 0 90 90" fill="none" xmlns="http://www.w3.org/2000/svg">
<path d="M45 8.4375C24.8077 8.4375 8.4375 24.8077 8.4375 45C8.4375 62.2645 20.4075 76.725 36.4992 80.5584C35.6667 80.3602 34.8413 80.138 34.0313 79.8848V71.5078C34.0313 71.5078 32.6602 71.9648 30.832 71.9648C25.7175 71.9648 23.5927 67.4016 23.0625 65.1094C22.7405 63.713 21.8995 62.3897 20.9967 61.5811C19.9181 60.6192 19.4133 60.6164 19.4062 60.2873C19.3922 59.5969 20.3316 59.625 20.7773 59.625C23.0625 59.625 24.795 62.0564 25.5994 63.3136C27.592 66.4172 29.7309 66.9375 30.832 66.9375C32.2031 66.9375 33.3872 66.7322 34.2028 66.3384C34.5797 63.6834 35.7609 61.3181 37.6875 59.625C29.1136 57.9108 23.0625 52.9931 23.0625 45C23.0625 40.8825 24.7148 37.0983 27.4683 34.0425C27.187 33.2452 26.7188 31.6322 26.7188 29.0039C26.7188 27.2672 26.8397 25.1353 27.6328 23.0625C27.6328 23.0625 32.8472 23.0991 37.7648 27.7566C40.0345 27.0956 42.4631 26.7188 45 26.7188C47.5369 26.7188 49.9655 27.0956 52.2352 27.7566C57.1528 23.0991 62.3672 23.0625 62.3672 23.0625C63.1645 25.1353 63.2812 27.2672 63.2812 29.0039C63.2812 31.8375 62.9044 33.4898 62.6738 34.2028C65.3428 37.2305 66.9375 40.9556 66.9375 45C66.9375 52.9931 60.8864 57.9108 52.3125 59.625C54.6019 61.6359 55.9688 64.5652 55.9688 67.8516V79.8848C55.1587 80.1394 54.3347 80.3602 53.5008 80.5584C69.5925 76.725 81.5625 62.2645 81.5625 45C81.5625 24.8077 65.1923 8.4375 45 8.4375ZM47.5495 81.4641C46.7072 81.5231 45.8578 81.5625 45 81.5625C45.8578 81.5625 46.7058 81.5217 47.5495 81.4641ZM45 81.5625C44.1422 81.5625 43.2928 81.5231 42.4505 81.4641C43.2942 81.5217 44.1422 81.5625 45 81.5625ZM41.8894 81.4219C40.178 81.277 38.4989 81.0155 36.8634 80.6428C38.5003 81.0141 40.178 81.277 41.8894 81.4219Z" fill="black"/>
</svg>
