<svg width="105" height="105" viewBox="0 0 105 105" fill="none" xmlns="http://www.w3.org/2000/svg">
<path d="M36.7156 7.30184L36.3132 6.99228V7.5V20V20.2847L36.5955 20.2479L59.5955 17.2479L59.8233 17.2182L59.8129 16.9886L59.3129 5.98865L59.2872 5.42244L58.8864 5.82322L53.625 11.0846L49.7838 3.88235L49.6008 3.53926L49.3646 3.84814L43.0169 12.149L36.7156 7.30184Z" fill="#FFFF00" stroke="black" stroke-width="0.5"/>
<rect x="38.5632" y="48.5031" width="9" height="55.5517" transform="rotate(-9.61382 38.5632 48.5031)" fill="black"/>
<rect x="53.8029" y="45.0157" width="8" height="50.0929" transform="rotate(-13.5425 53.8029 45.0157)" fill="white" stroke="black"/>
<rect x="59.4486" y="34.976" width="8.48454" height="27.4409" transform="rotate(-42.2368 59.4486 34.976)" fill="white" stroke="black"/>
<rect x="47.5632" y="96.2574" width="11.2246" height="4" rx="2" transform="rotate(-10 47.5632 96.2574)" fill="black"/>
<rect x="17" y="70.5006" width="12.4021" height="4.70792" rx="2.35396" transform="rotate(-52.7058 17 70.5006)" fill="black"/>
<rect x="24.5632" y="72.3929" width="12.4021" height="4.70792" rx="2.35396" transform="rotate(-87.7887 24.5632 72.3929)" fill="black"/>
<rect x="31.105" y="71.2646" width="12.4021" height="4.70792" rx="2.35396" transform="rotate(-111.482 31.105 71.2646)" fill="black"/>
<rect x="65.5789" y="88.2777" width="11.2671" height="3" rx="1.5" transform="rotate(-10 65.5789 88.2777)" fill="white" stroke="black"/>
<rect x="73.9086" y="61.6199" width="8.27669" height="2.48361" rx="1.2418" transform="rotate(-57.294 73.9086 61.6199)" fill="white" stroke="black" stroke-width="0.5"/>
<rect x="78.8179" y="64.5299" width="8.27669" height="2.48361" rx="1.2418" transform="rotate(-88.9006 78.8179 64.5299)" fill="white" stroke="black" stroke-width="0.5"/>
<rect x="83.8123" y="62.7245" width="8.27669" height="2.48361" rx="1.2418" transform="rotate(-102.368 83.8123 62.7245)" fill="white" stroke="black" stroke-width="0.5"/>
<rect x="47.5632" y="99.2574" width="13.5005" height="4" rx="2" transform="rotate(-10 47.5632 99.2574)" fill="black"/>
<rect x="64.9795" y="91.4308" width="12.5005" height="3.93815" rx="1.96908" transform="rotate(-10 64.9795 91.4308)" fill="white" stroke="black"/>
<rect x="72.8723" y="61.8457" width="9.77669" height="3.98361" rx="1.9918" transform="rotate(-57.294 72.8723 61.8457)" fill="white" stroke="black"/>
<rect x="78.0537" y="65.2654" width="9.77669" height="3.98361" rx="1.9918" transform="rotate(-88.9006 78.0537 65.2654)" fill="white" stroke="black"/>
<rect x="83.2404" y="63.6177" width="9.77669" height="3.98361" rx="1.9918" transform="rotate(-102.368 83.2404 63.6177)" fill="white" stroke="black"/>
<path d="M80.5632 59.5C81.852 59.5 83.1058 58.7878 84.022 57.7135C84.9438 56.6327 85.5632 55.1441 85.5632 53.5C85.5632 51.8559 84.9438 50.3673 84.022 49.2865C83.1058 48.2122 81.852 47.5 80.5632 47.5C79.288 47.5 78.2615 48.0767 77.5728 49.0775C76.8977 50.0586 76.5632 51.4194 76.5632 53C76.5632 54.5805 76.8975 56.1658 77.5438 57.3748C78.1876 58.5791 79.1994 59.5 80.5632 59.5Z" fill="white" stroke="black"/>
<rect x="73.5632" y="61.6952" width="8.77669" height="2.98361" rx="1.4918" transform="rotate(-57.294 73.5632 61.6952)" fill="white"/>
<rect x="78.5632" y="64.7751" width="8.77669" height="2.98361" rx="1.4918" transform="rotate(-88.9006 78.5632 64.7751)" fill="white"/>
<rect x="83.6217" y="63.0222" width="8.77669" height="2.98361" rx="1.4918" transform="rotate(-102.368 83.6217 63.0222)" fill="white"/>
<rect x="60.1549" y="35.0101" width="7.48454" height="26.4409" transform="rotate(-42.2368 60.1549 35.0101)" fill="white"/>
<rect width="7.6315" height="30.3858" transform="matrix(-0.881279 -0.472597 -0.472597 0.881279 39.932 31.6066)" fill="black"/>
<rect x="18.8783" y="54.7949" width="7.97893" height="10.4526" transform="rotate(-32.912 18.8783 54.7949)" fill="black"/>
<path d="M50.0632 53.5C60.5811 53.5 69.0632 44.5206 69.0632 33.5C69.0632 22.4794 60.5811 13.5 50.0632 13.5C39.5453 13.5 31.0632 22.4794 31.0632 33.5C31.0632 44.5206 39.5453 53.5 50.0632 53.5Z" fill="white" stroke="black"/>
<rect x="54.1945" y="44.4071" width="7.0362" height="51.0929" transform="rotate(-13.5425 54.1945 44.4071)" fill="white"/>
<path fill-rule="evenodd" clip-rule="evenodd" d="M48.6684 52.9454C52.2659 48.8196 54.5632 42.5371 54.5632 35.5C54.5632 26.2011 50.5518 18.2197 44.8297 14.7912C37.1611 17.1708 31.5632 24.6463 31.5632 33.5C31.5632 43.775 39.1027 52.1939 48.6684 52.9454Z" fill="black"/>
<ellipse cx="43.7575" cy="28.4527" rx="7" ry="8.5" transform="rotate(-8.61535 43.7575 28.4527)" fill="#32CD32"/>
<ellipse cx="44.2518" cy="28.3778" rx="4.5" ry="6.5" transform="rotate(-8.61535 44.2518 28.3778)" fill="black"/>
<ellipse cx="44.2518" cy="28.3778" rx="4.5" ry="6.5" transform="rotate(-8.61535 44.2518 28.3778)" fill="black"/>
<ellipse cx="44.2518" cy="28.3778" rx="4.5" ry="6.5" transform="rotate(-8.61535 44.2518 28.3778)" fill="black"/>
<ellipse cx="44.2518" cy="28.3778" rx="4.5" ry="6.5" transform="rotate(-8.61535 44.2518 28.3778)" fill="black"/>
<path d="M62.3098 37.9899C63.9107 37.6728 65.1281 36.3899 65.8248 34.6393C66.5226 32.886 66.7143 30.6322 66.2503 28.2895C65.7862 25.9468 64.75 23.9361 63.4365 22.5811C62.1252 21.2283 60.5106 20.5063 58.9098 20.8234C57.309 21.1404 56.0915 22.4234 55.3948 24.1739C54.697 25.9272 54.5054 28.1811 54.9694 30.5238C55.4334 32.8665 56.4697 34.8772 57.7831 36.2321C59.0944 37.5849 60.709 38.3069 62.3098 37.9899Z" fill="#FFA500" stroke="black" stroke-width="0.5"/>
<ellipse cx="62.1784" cy="29.6057" rx="3" ry="6" transform="rotate(-11.2032 62.1784 29.6057)" fill="black"/>
<ellipse cx="62.1784" cy="29.6057" rx="3" ry="6" transform="rotate(-11.2032 62.1784 29.6057)" fill="black"/>
<ellipse cx="62.1784" cy="29.6057" rx="3" ry="6" transform="rotate(-11.2032 62.1784 29.6057)" fill="black"/>
<ellipse cx="62.1784" cy="29.6057" rx="3" ry="6" transform="rotate(-11.2032 62.1784 29.6057)" fill="black"/>
</svg>
